<svg class="svg-icon" style="width: 1em; height: 1em;vertical-align: middle;fill: currentColor;overflow: hidden;" viewBox="0 0 1024 1024" version="1.1" xmlns="http://www.w3.org/2000/svg"><path d="M480.0512 486.8096c83.7632 21.4016 152.7808 66.6624 206.848 135.9872C740.9664 692.224 768 771.072 768 859.4432c0 12.1856-6.144 18.3296-18.3296 18.3296S731.4432 871.6288 731.4432 859.4432c0-96.0512-33.8944-177.8688-101.6832-245.76C561.8688 545.9968 480.0512 512 384 512c-96.0512 0-177.8688 33.9968-245.76 101.6832-67.7888 67.7888-101.6832 149.7088-101.6832 245.76 0 12.1856-6.144 18.3296-18.3296 18.3296S0 871.6288 0 859.4432C0 771.072 27.0336 692.224 81.1008 622.8992c54.0672-69.3248 123.0848-114.5856 206.848-135.9872-70.0416-36.5568-105.1648-95.232-105.1648-176.0256 0-56.32 19.456-104.0384 58.2656-142.848C279.9616 129.1264 327.5776 109.6704 384 109.6704c56.4224 0 104.0384 19.456 142.848 58.2656 38.912 38.912 58.2656 86.528 58.2656 142.848C585.1136 391.68 550.0928 450.2528 480.0512 486.8096zM267.4688 427.4176C299.4176 459.4688 338.3296 475.4432 384 475.4432c45.6704 0 84.5824-15.9744 116.5312-48.0256 31.9488-32.0512 48.0256-70.8608 48.0256-116.5312 0-45.6704-15.9744-84.5824-48.0256-116.5312C468.5824 162.304 429.6704 146.3296 384 146.3296c-45.6704 0-84.5824 15.9744-116.5312 48.0256C235.4176 226.304 219.4432 265.1136 219.4432 310.8864 219.4432 356.5568 235.4176 395.4688 267.4688 427.4176zM783.9744 342.8352c67.072 18.3296 122.6752 54.4768 166.8096 108.544C995.0208 505.5488 1019.392 568.4224 1024 640c0 12.1856-6.144 18.3296-18.3296 18.3296-12.1856 0-18.3296-6.0416-18.3296-18.3296C982.8352 563.8144 952.4224 499.0976 896 445.7472 839.5776 392.3968 772.608 365.6704 694.8864 365.6704c-12.1856 0-30.5152 1.536-54.8864 4.608-13.7216 3.072-20.5824-1.4336-20.5824-13.7216-1.536-3.072-0.8192-7.5776 2.2528-13.7216-1.536-3.072-1.536-6.8608 0-11.4688 3.072-10.6496 10.6496-14.4384 22.8352-11.4688 13.7216 6.144 30.5152 9.1136 50.2784 9.1136 39.6288 0 73.9328-14.4384 102.8096-43.4176 28.9792-28.8768 43.4176-63.1808 43.4176-102.8096 0-39.6288-14.4384-73.9328-43.4176-102.8096C768.7168 51.0976 734.5152 36.5568 694.8864 36.5568c-60.928 0-105.1648 28.2624-132.608 84.5824-4.608 9.1136-12.9024 12.288-25.1904 9.1136C526.4384 125.7472 524.1856 117.3504 530.3296 105.1648c15.2576-31.9488 37.6832-57.4464 67.3792-76.5952C627.4048 9.5232 659.7632 0 694.8864 0c50.2784 0 93.2864 17.92 129.1264 53.6576 35.84 35.84 53.76 78.848 53.76 129.1264C877.6704 254.5664 846.4384 307.8144 783.9744 342.8352z"  /></svg>